<mxfile host="app.diagrams.net" agent="Mozilla/5.0 (Windows NT 10.0; Win64; x64) AppleWebKit/537.36 (KHTML, like Gecko) Chrome/129.0.0.0 Safari/537.36" version="24.7.16">
  <diagram name="Página-1" id="xDuGwbvVGGc42Z8EaniD">
    <mxGraphModel dx="1050" dy="1734" grid="1" gridSize="10" guides="1" tooltips="1" connect="1" arrows="1" fold="1" page="1" pageScale="1" pageWidth="827" pageHeight="1169" math="0" shadow="0">
      <root>
        <mxCell id="0" />
        <mxCell id="1" parent="0" />
        <mxCell id="ALidpNHmi0iWt_zrbhTk-3" style="edgeStyle=orthogonalEdgeStyle;rounded=0;orthogonalLoop=1;jettySize=auto;html=1;" edge="1" parent="1">
          <mxGeometry relative="1" as="geometry">
            <mxPoint x="740" y="570" as="targetPoint" />
            <mxPoint x="740" y="550" as="sourcePoint" />
          </mxGeometry>
        </mxCell>
        <mxCell id="ALidpNHmi0iWt_zrbhTk-54" value="" style="shape=table;startSize=0;container=1;collapsible=0;childLayout=tableLayout;" vertex="1" parent="1">
          <mxGeometry x="110" y="-1080" width="580" height="470" as="geometry" />
        </mxCell>
        <mxCell id="ALidpNHmi0iWt_zrbhTk-55" value="" style="shape=tableRow;horizontal=0;startSize=0;swimlaneHead=0;swimlaneBody=0;strokeColor=inherit;top=0;left=0;bottom=0;right=0;collapsible=0;dropTarget=0;fillColor=none;points=[[0,0.5],[1,0.5]];portConstraint=eastwest;" vertex="1" parent="ALidpNHmi0iWt_zrbhTk-54">
          <mxGeometry width="580" height="53" as="geometry" />
        </mxCell>
        <mxCell id="ALidpNHmi0iWt_zrbhTk-56" value="Nome Do Caso De Uso" style="shape=partialRectangle;html=1;whiteSpace=wrap;connectable=0;strokeColor=inherit;overflow=hidden;fillColor=none;top=0;left=0;bottom=0;right=0;pointerEvents=1;" vertex="1" parent="ALidpNHmi0iWt_zrbhTk-55">
          <mxGeometry width="290" height="53" as="geometry">
            <mxRectangle width="290" height="53" as="alternateBounds" />
          </mxGeometry>
        </mxCell>
        <mxCell id="ALidpNHmi0iWt_zrbhTk-57" value="" style="shape=partialRectangle;html=1;whiteSpace=wrap;connectable=0;strokeColor=inherit;overflow=hidden;fillColor=none;top=0;left=0;bottom=0;right=0;pointerEvents=1;" vertex="1" parent="ALidpNHmi0iWt_zrbhTk-55">
          <mxGeometry x="290" width="290" height="53" as="geometry">
            <mxRectangle width="290" height="53" as="alternateBounds" />
          </mxGeometry>
        </mxCell>
        <mxCell id="ALidpNHmi0iWt_zrbhTk-58" value="" style="shape=tableRow;horizontal=0;startSize=0;swimlaneHead=0;swimlaneBody=0;strokeColor=inherit;top=0;left=0;bottom=0;right=0;collapsible=0;dropTarget=0;fillColor=none;points=[[0,0.5],[1,0.5]];portConstraint=eastwest;" vertex="1" parent="ALidpNHmi0iWt_zrbhTk-54">
          <mxGeometry y="53" width="580" height="52" as="geometry" />
        </mxCell>
        <mxCell id="ALidpNHmi0iWt_zrbhTk-59" value="Ator Principal" style="shape=partialRectangle;html=1;whiteSpace=wrap;connectable=0;strokeColor=inherit;overflow=hidden;fillColor=none;top=0;left=0;bottom=0;right=0;pointerEvents=1;" vertex="1" parent="ALidpNHmi0iWt_zrbhTk-58">
          <mxGeometry width="290" height="52" as="geometry">
            <mxRectangle width="290" height="52" as="alternateBounds" />
          </mxGeometry>
        </mxCell>
        <mxCell id="ALidpNHmi0iWt_zrbhTk-60" value="" style="shape=partialRectangle;html=1;whiteSpace=wrap;connectable=0;strokeColor=inherit;overflow=hidden;fillColor=none;top=0;left=0;bottom=0;right=0;pointerEvents=1;" vertex="1" parent="ALidpNHmi0iWt_zrbhTk-58">
          <mxGeometry x="290" width="290" height="52" as="geometry">
            <mxRectangle width="290" height="52" as="alternateBounds" />
          </mxGeometry>
        </mxCell>
        <mxCell id="ALidpNHmi0iWt_zrbhTk-61" value="" style="shape=tableRow;horizontal=0;startSize=0;swimlaneHead=0;swimlaneBody=0;strokeColor=inherit;top=0;left=0;bottom=0;right=0;collapsible=0;dropTarget=0;fillColor=none;points=[[0,0.5],[1,0.5]];portConstraint=eastwest;" vertex="1" parent="ALidpNHmi0iWt_zrbhTk-54">
          <mxGeometry y="105" width="580" height="51" as="geometry" />
        </mxCell>
        <mxCell id="ALidpNHmi0iWt_zrbhTk-62" value="Atores Secundários" style="shape=partialRectangle;html=1;whiteSpace=wrap;connectable=0;strokeColor=inherit;overflow=hidden;fillColor=none;top=0;left=0;bottom=0;right=0;pointerEvents=1;" vertex="1" parent="ALidpNHmi0iWt_zrbhTk-61">
          <mxGeometry width="290" height="51" as="geometry">
            <mxRectangle width="290" height="51" as="alternateBounds" />
          </mxGeometry>
        </mxCell>
        <mxCell id="ALidpNHmi0iWt_zrbhTk-63" value="" style="shape=partialRectangle;html=1;whiteSpace=wrap;connectable=0;strokeColor=inherit;overflow=hidden;fillColor=none;top=0;left=0;bottom=0;right=0;pointerEvents=1;" vertex="1" parent="ALidpNHmi0iWt_zrbhTk-61">
          <mxGeometry x="290" width="290" height="51" as="geometry">
            <mxRectangle width="290" height="51" as="alternateBounds" />
          </mxGeometry>
        </mxCell>
        <mxCell id="ALidpNHmi0iWt_zrbhTk-64" value="" style="shape=tableRow;horizontal=0;startSize=0;swimlaneHead=0;swimlaneBody=0;strokeColor=inherit;top=0;left=0;bottom=0;right=0;collapsible=0;dropTarget=0;fillColor=none;points=[[0,0.5],[1,0.5]];portConstraint=eastwest;" vertex="1" parent="ALidpNHmi0iWt_zrbhTk-54">
          <mxGeometry y="156" width="580" height="53" as="geometry" />
        </mxCell>
        <mxCell id="ALidpNHmi0iWt_zrbhTk-65" value="Resumo" style="shape=partialRectangle;html=1;whiteSpace=wrap;connectable=0;strokeColor=inherit;overflow=hidden;fillColor=none;top=0;left=0;bottom=0;right=0;pointerEvents=1;" vertex="1" parent="ALidpNHmi0iWt_zrbhTk-64">
          <mxGeometry width="290" height="53" as="geometry">
            <mxRectangle width="290" height="53" as="alternateBounds" />
          </mxGeometry>
        </mxCell>
        <mxCell id="ALidpNHmi0iWt_zrbhTk-66" value="" style="shape=partialRectangle;html=1;whiteSpace=wrap;connectable=0;strokeColor=inherit;overflow=hidden;fillColor=none;top=0;left=0;bottom=0;right=0;pointerEvents=1;" vertex="1" parent="ALidpNHmi0iWt_zrbhTk-64">
          <mxGeometry x="290" width="290" height="53" as="geometry">
            <mxRectangle width="290" height="53" as="alternateBounds" />
          </mxGeometry>
        </mxCell>
        <mxCell id="ALidpNHmi0iWt_zrbhTk-67" value="" style="shape=tableRow;horizontal=0;startSize=0;swimlaneHead=0;swimlaneBody=0;strokeColor=inherit;top=0;left=0;bottom=0;right=0;collapsible=0;dropTarget=0;fillColor=none;points=[[0,0.5],[1,0.5]];portConstraint=eastwest;" vertex="1" parent="ALidpNHmi0iWt_zrbhTk-54">
          <mxGeometry y="209" width="580" height="52" as="geometry" />
        </mxCell>
        <mxCell id="ALidpNHmi0iWt_zrbhTk-68" value="Pré-Condições" style="shape=partialRectangle;html=1;whiteSpace=wrap;connectable=0;strokeColor=inherit;overflow=hidden;fillColor=none;top=0;left=0;bottom=0;right=0;pointerEvents=1;" vertex="1" parent="ALidpNHmi0iWt_zrbhTk-67">
          <mxGeometry width="290" height="52" as="geometry">
            <mxRectangle width="290" height="52" as="alternateBounds" />
          </mxGeometry>
        </mxCell>
        <mxCell id="ALidpNHmi0iWt_zrbhTk-69" value="" style="shape=partialRectangle;html=1;whiteSpace=wrap;connectable=0;strokeColor=inherit;overflow=hidden;fillColor=none;top=0;left=0;bottom=0;right=0;pointerEvents=1;" vertex="1" parent="ALidpNHmi0iWt_zrbhTk-67">
          <mxGeometry x="290" width="290" height="52" as="geometry">
            <mxRectangle width="290" height="52" as="alternateBounds" />
          </mxGeometry>
        </mxCell>
        <mxCell id="ALidpNHmi0iWt_zrbhTk-70" value="" style="shape=tableRow;horizontal=0;startSize=0;swimlaneHead=0;swimlaneBody=0;strokeColor=inherit;top=0;left=0;bottom=0;right=0;collapsible=0;dropTarget=0;fillColor=none;points=[[0,0.5],[1,0.5]];portConstraint=eastwest;" vertex="1" parent="ALidpNHmi0iWt_zrbhTk-54">
          <mxGeometry y="261" width="580" height="53" as="geometry" />
        </mxCell>
        <mxCell id="ALidpNHmi0iWt_zrbhTk-71" value="Pós-Condições" style="shape=partialRectangle;html=1;whiteSpace=wrap;connectable=0;strokeColor=inherit;overflow=hidden;fillColor=none;top=0;left=0;bottom=0;right=0;pointerEvents=1;" vertex="1" parent="ALidpNHmi0iWt_zrbhTk-70">
          <mxGeometry width="290" height="53" as="geometry">
            <mxRectangle width="290" height="53" as="alternateBounds" />
          </mxGeometry>
        </mxCell>
        <mxCell id="ALidpNHmi0iWt_zrbhTk-72" value="" style="shape=partialRectangle;html=1;whiteSpace=wrap;connectable=0;strokeColor=inherit;overflow=hidden;fillColor=none;top=0;left=0;bottom=0;right=0;pointerEvents=1;" vertex="1" parent="ALidpNHmi0iWt_zrbhTk-70">
          <mxGeometry x="290" width="290" height="53" as="geometry">
            <mxRectangle width="290" height="53" as="alternateBounds" />
          </mxGeometry>
        </mxCell>
        <mxCell id="ALidpNHmi0iWt_zrbhTk-76" value="" style="shape=tableRow;horizontal=0;startSize=0;swimlaneHead=0;swimlaneBody=0;strokeColor=inherit;top=0;left=0;bottom=0;right=0;collapsible=0;dropTarget=0;fillColor=none;points=[[0,0.5],[1,0.5]];portConstraint=eastwest;" vertex="1" parent="ALidpNHmi0iWt_zrbhTk-54">
          <mxGeometry y="314" width="580" height="51" as="geometry" />
        </mxCell>
        <mxCell id="ALidpNHmi0iWt_zrbhTk-77" value="" style="shape=partialRectangle;html=1;whiteSpace=wrap;connectable=0;strokeColor=inherit;overflow=hidden;fillColor=none;top=0;left=0;bottom=0;right=0;pointerEvents=1;" vertex="1" parent="ALidpNHmi0iWt_zrbhTk-76">
          <mxGeometry width="290" height="51" as="geometry">
            <mxRectangle width="290" height="51" as="alternateBounds" />
          </mxGeometry>
        </mxCell>
        <mxCell id="ALidpNHmi0iWt_zrbhTk-78" value="" style="shape=partialRectangle;html=1;whiteSpace=wrap;connectable=0;strokeColor=inherit;overflow=hidden;fillColor=none;top=0;left=0;bottom=0;right=0;pointerEvents=1;" vertex="1" parent="ALidpNHmi0iWt_zrbhTk-76">
          <mxGeometry x="290" width="290" height="51" as="geometry">
            <mxRectangle width="290" height="51" as="alternateBounds" />
          </mxGeometry>
        </mxCell>
        <mxCell id="ALidpNHmi0iWt_zrbhTk-79" value="" style="shape=tableRow;horizontal=0;startSize=0;swimlaneHead=0;swimlaneBody=0;strokeColor=inherit;top=0;left=0;bottom=0;right=0;collapsible=0;dropTarget=0;fillColor=none;points=[[0,0.5],[1,0.5]];portConstraint=eastwest;" vertex="1" parent="ALidpNHmi0iWt_zrbhTk-54">
          <mxGeometry y="365" width="580" height="52" as="geometry" />
        </mxCell>
        <mxCell id="ALidpNHmi0iWt_zrbhTk-80" value="Ação do Ator" style="shape=partialRectangle;html=1;whiteSpace=wrap;connectable=0;strokeColor=inherit;overflow=hidden;fillColor=none;top=0;left=0;bottom=0;right=0;pointerEvents=1;" vertex="1" parent="ALidpNHmi0iWt_zrbhTk-79">
          <mxGeometry width="290" height="52" as="geometry">
            <mxRectangle width="290" height="52" as="alternateBounds" />
          </mxGeometry>
        </mxCell>
        <mxCell id="ALidpNHmi0iWt_zrbhTk-81" value="Ações do Sistema" style="shape=partialRectangle;html=1;whiteSpace=wrap;connectable=0;strokeColor=inherit;overflow=hidden;fillColor=none;top=0;left=0;bottom=0;right=0;pointerEvents=1;" vertex="1" parent="ALidpNHmi0iWt_zrbhTk-79">
          <mxGeometry x="290" width="290" height="52" as="geometry">
            <mxRectangle width="290" height="52" as="alternateBounds" />
          </mxGeometry>
        </mxCell>
        <mxCell id="ALidpNHmi0iWt_zrbhTk-82" value="" style="shape=tableRow;horizontal=0;startSize=0;swimlaneHead=0;swimlaneBody=0;strokeColor=inherit;top=0;left=0;bottom=0;right=0;collapsible=0;dropTarget=0;fillColor=none;points=[[0,0.5],[1,0.5]];portConstraint=eastwest;" vertex="1" parent="ALidpNHmi0iWt_zrbhTk-54">
          <mxGeometry y="417" width="580" height="53" as="geometry" />
        </mxCell>
        <mxCell id="ALidpNHmi0iWt_zrbhTk-83" value="" style="shape=partialRectangle;html=1;whiteSpace=wrap;connectable=0;strokeColor=inherit;overflow=hidden;fillColor=none;top=0;left=0;bottom=0;right=0;pointerEvents=1;" vertex="1" parent="ALidpNHmi0iWt_zrbhTk-82">
          <mxGeometry width="290" height="53" as="geometry">
            <mxRectangle width="290" height="53" as="alternateBounds" />
          </mxGeometry>
        </mxCell>
        <mxCell id="ALidpNHmi0iWt_zrbhTk-84" value="" style="shape=partialRectangle;html=1;whiteSpace=wrap;connectable=0;strokeColor=inherit;overflow=hidden;fillColor=none;top=0;left=0;bottom=0;right=0;pointerEvents=1;" vertex="1" parent="ALidpNHmi0iWt_zrbhTk-82">
          <mxGeometry x="290" width="290" height="53" as="geometry">
            <mxRectangle width="290" height="53" as="alternateBounds" />
          </mxGeometry>
        </mxCell>
        <mxCell id="ALidpNHmi0iWt_zrbhTk-85" value="&lt;b&gt;FLUXO PRINCIPAL&lt;/b&gt;" style="rounded=0;whiteSpace=wrap;html=1;" vertex="1" parent="1">
          <mxGeometry x="110" y="-770" width="580" height="60" as="geometry" />
        </mxCell>
        <mxCell id="ALidpNHmi0iWt_zrbhTk-86" value="" style="shape=table;startSize=0;container=1;collapsible=0;childLayout=tableLayout;" vertex="1" parent="1">
          <mxGeometry x="110" y="-610" width="580" height="290" as="geometry" />
        </mxCell>
        <mxCell id="ALidpNHmi0iWt_zrbhTk-87" value="" style="shape=tableRow;horizontal=0;startSize=0;swimlaneHead=0;swimlaneBody=0;strokeColor=inherit;top=0;left=0;bottom=0;right=0;collapsible=0;dropTarget=0;fillColor=none;points=[[0,0.5],[1,0.5]];portConstraint=eastwest;" vertex="1" parent="ALidpNHmi0iWt_zrbhTk-86">
          <mxGeometry width="580" height="45" as="geometry" />
        </mxCell>
        <mxCell id="ALidpNHmi0iWt_zrbhTk-88" value="" style="shape=partialRectangle;html=1;whiteSpace=wrap;connectable=0;strokeColor=inherit;overflow=hidden;fillColor=none;top=0;left=0;bottom=0;right=0;pointerEvents=1;" vertex="1" parent="ALidpNHmi0iWt_zrbhTk-87">
          <mxGeometry width="290" height="45" as="geometry">
            <mxRectangle width="290" height="45" as="alternateBounds" />
          </mxGeometry>
        </mxCell>
        <mxCell id="ALidpNHmi0iWt_zrbhTk-89" value="" style="shape=partialRectangle;html=1;whiteSpace=wrap;connectable=0;strokeColor=inherit;overflow=hidden;fillColor=none;top=0;left=0;bottom=0;right=0;pointerEvents=1;" vertex="1" parent="ALidpNHmi0iWt_zrbhTk-87">
          <mxGeometry x="290" width="290" height="45" as="geometry">
            <mxRectangle width="290" height="45" as="alternateBounds" />
          </mxGeometry>
        </mxCell>
        <mxCell id="ALidpNHmi0iWt_zrbhTk-90" value="" style="shape=tableRow;horizontal=0;startSize=0;swimlaneHead=0;swimlaneBody=0;strokeColor=inherit;top=0;left=0;bottom=0;right=0;collapsible=0;dropTarget=0;fillColor=none;points=[[0,0.5],[1,0.5]];portConstraint=eastwest;" vertex="1" parent="ALidpNHmi0iWt_zrbhTk-86">
          <mxGeometry y="45" width="580" height="67" as="geometry" />
        </mxCell>
        <mxCell id="ALidpNHmi0iWt_zrbhTk-91" value="" style="shape=partialRectangle;html=1;whiteSpace=wrap;connectable=0;strokeColor=inherit;overflow=hidden;fillColor=none;top=0;left=0;bottom=0;right=0;pointerEvents=1;" vertex="1" parent="ALidpNHmi0iWt_zrbhTk-90">
          <mxGeometry width="290" height="67" as="geometry">
            <mxRectangle width="290" height="67" as="alternateBounds" />
          </mxGeometry>
        </mxCell>
        <mxCell id="ALidpNHmi0iWt_zrbhTk-92" value="" style="shape=partialRectangle;html=1;whiteSpace=wrap;connectable=0;strokeColor=inherit;overflow=hidden;fillColor=none;top=0;left=0;bottom=0;right=0;pointerEvents=1;" vertex="1" parent="ALidpNHmi0iWt_zrbhTk-90">
          <mxGeometry x="290" width="290" height="67" as="geometry">
            <mxRectangle width="290" height="67" as="alternateBounds" />
          </mxGeometry>
        </mxCell>
        <mxCell id="ALidpNHmi0iWt_zrbhTk-93" value="" style="shape=tableRow;horizontal=0;startSize=0;swimlaneHead=0;swimlaneBody=0;strokeColor=inherit;top=0;left=0;bottom=0;right=0;collapsible=0;dropTarget=0;fillColor=none;points=[[0,0.5],[1,0.5]];portConstraint=eastwest;" vertex="1" parent="ALidpNHmi0iWt_zrbhTk-86">
          <mxGeometry y="112" width="580" height="44" as="geometry" />
        </mxCell>
        <mxCell id="ALidpNHmi0iWt_zrbhTk-94" value="" style="shape=partialRectangle;html=1;whiteSpace=wrap;connectable=0;strokeColor=inherit;overflow=hidden;fillColor=none;top=0;left=0;bottom=0;right=0;pointerEvents=1;" vertex="1" parent="ALidpNHmi0iWt_zrbhTk-93">
          <mxGeometry width="290" height="44" as="geometry">
            <mxRectangle width="290" height="44" as="alternateBounds" />
          </mxGeometry>
        </mxCell>
        <mxCell id="ALidpNHmi0iWt_zrbhTk-95" value="" style="shape=partialRectangle;html=1;whiteSpace=wrap;connectable=0;strokeColor=inherit;overflow=hidden;fillColor=none;top=0;left=0;bottom=0;right=0;pointerEvents=1;" vertex="1" parent="ALidpNHmi0iWt_zrbhTk-93">
          <mxGeometry x="290" width="290" height="44" as="geometry">
            <mxRectangle width="290" height="44" as="alternateBounds" />
          </mxGeometry>
        </mxCell>
        <mxCell id="ALidpNHmi0iWt_zrbhTk-96" value="" style="shape=tableRow;horizontal=0;startSize=0;swimlaneHead=0;swimlaneBody=0;strokeColor=inherit;top=0;left=0;bottom=0;right=0;collapsible=0;dropTarget=0;fillColor=none;points=[[0,0.5],[1,0.5]];portConstraint=eastwest;" vertex="1" parent="ALidpNHmi0iWt_zrbhTk-86">
          <mxGeometry y="156" width="580" height="45" as="geometry" />
        </mxCell>
        <mxCell id="ALidpNHmi0iWt_zrbhTk-97" value="" style="shape=partialRectangle;html=1;whiteSpace=wrap;connectable=0;strokeColor=inherit;overflow=hidden;fillColor=none;top=0;left=0;bottom=0;right=0;pointerEvents=1;" vertex="1" parent="ALidpNHmi0iWt_zrbhTk-96">
          <mxGeometry width="290" height="45" as="geometry">
            <mxRectangle width="290" height="45" as="alternateBounds" />
          </mxGeometry>
        </mxCell>
        <mxCell id="ALidpNHmi0iWt_zrbhTk-98" value="" style="shape=partialRectangle;html=1;whiteSpace=wrap;connectable=0;strokeColor=inherit;overflow=hidden;fillColor=none;top=0;left=0;bottom=0;right=0;pointerEvents=1;" vertex="1" parent="ALidpNHmi0iWt_zrbhTk-96">
          <mxGeometry x="290" width="290" height="45" as="geometry">
            <mxRectangle width="290" height="45" as="alternateBounds" />
          </mxGeometry>
        </mxCell>
        <mxCell id="ALidpNHmi0iWt_zrbhTk-99" value="" style="shape=tableRow;horizontal=0;startSize=0;swimlaneHead=0;swimlaneBody=0;strokeColor=inherit;top=0;left=0;bottom=0;right=0;collapsible=0;dropTarget=0;fillColor=none;points=[[0,0.5],[1,0.5]];portConstraint=eastwest;" vertex="1" parent="ALidpNHmi0iWt_zrbhTk-86">
          <mxGeometry y="201" width="580" height="44" as="geometry" />
        </mxCell>
        <mxCell id="ALidpNHmi0iWt_zrbhTk-100" value="" style="shape=partialRectangle;html=1;whiteSpace=wrap;connectable=0;strokeColor=inherit;overflow=hidden;fillColor=none;top=0;left=0;bottom=0;right=0;pointerEvents=1;" vertex="1" parent="ALidpNHmi0iWt_zrbhTk-99">
          <mxGeometry width="290" height="44" as="geometry">
            <mxRectangle width="290" height="44" as="alternateBounds" />
          </mxGeometry>
        </mxCell>
        <mxCell id="ALidpNHmi0iWt_zrbhTk-101" value="" style="shape=partialRectangle;html=1;whiteSpace=wrap;connectable=0;strokeColor=inherit;overflow=hidden;fillColor=none;top=0;left=0;bottom=0;right=0;pointerEvents=1;" vertex="1" parent="ALidpNHmi0iWt_zrbhTk-99">
          <mxGeometry x="290" width="290" height="44" as="geometry">
            <mxRectangle width="290" height="44" as="alternateBounds" />
          </mxGeometry>
        </mxCell>
        <mxCell id="ALidpNHmi0iWt_zrbhTk-102" value="" style="shape=tableRow;horizontal=0;startSize=0;swimlaneHead=0;swimlaneBody=0;strokeColor=inherit;top=0;left=0;bottom=0;right=0;collapsible=0;dropTarget=0;fillColor=none;points=[[0,0.5],[1,0.5]];portConstraint=eastwest;" vertex="1" parent="ALidpNHmi0iWt_zrbhTk-86">
          <mxGeometry y="245" width="580" height="45" as="geometry" />
        </mxCell>
        <mxCell id="ALidpNHmi0iWt_zrbhTk-103" value="" style="shape=partialRectangle;html=1;whiteSpace=wrap;connectable=0;strokeColor=inherit;overflow=hidden;fillColor=none;top=0;left=0;bottom=0;right=0;pointerEvents=1;" vertex="1" parent="ALidpNHmi0iWt_zrbhTk-102">
          <mxGeometry width="290" height="45" as="geometry">
            <mxRectangle width="290" height="45" as="alternateBounds" />
          </mxGeometry>
        </mxCell>
        <mxCell id="ALidpNHmi0iWt_zrbhTk-104" value="" style="shape=partialRectangle;html=1;whiteSpace=wrap;connectable=0;strokeColor=inherit;overflow=hidden;fillColor=none;top=0;left=0;bottom=0;right=0;pointerEvents=1;" vertex="1" parent="ALidpNHmi0iWt_zrbhTk-102">
          <mxGeometry x="290" width="290" height="45" as="geometry">
            <mxRectangle width="290" height="45" as="alternateBounds" />
          </mxGeometry>
        </mxCell>
      </root>
    </mxGraphModel>
  </diagram>
</mxfile>
